<?xml version="1.0" encoding="UTF-8"?>
<svg xmlns="http://www.w3.org/2000/svg" version="1.1" viewBox="0 0 800 800">
    <defs>
        <style>
            .cls-1 {
            fill: #efab6b;
            }

            .cls-2 {
            fill: #262571;
            }

            .cls-3 {
            fill: #b36c1d;
            }

            .cls-4 {
            fill: #14192e;
            }

            .cls-5 {
            fill: #5fceff;
            }

            .cls-6 {
            fill: #ea923e;
            }
        </style>
    </defs>
    <!-- Generator: Adobe Illustrator 28.7.1, SVG Export Plug-In . SVG Version: 1.2.0 Build 142)  -->
    <g>
        <g id="Layer_1">
            <path class="cls-4"
                  d="M688,317.9l-83.6,43.8.7-100h-.2c0,0,109.8-57.5,109.8-57.5v99.9l-26.6,13.9ZM714.6,204.1l-109.8,57.4-117.4-56.5,105.7-54.8,121.5,53.9Z"/>
            <path class="cls-3" d="M608.7,261.6l-.7,100-90.1,47.2.8-100.1h-.2c0-.1,89.9-47.2,89.9-47.2h.2Z"/>
            <path class="cls-1" d="M491,205l117.4,56.5-89.9,47-115.2-58.1,87.7-45.5Z"/>
            <path class="cls-5" d="M503.8,110.5l89.3,39.7-89.3-39.7Z"/>
            <path class="cls-1" d="M596.7,150.1l-105.7,54.8-89.1-42.9,104.8-51.9.7.3,89.3,39.7Z"/>
            <path class="cls-4" d="M515.2,308.7l-.8,100.1-114,59.6v-99.9l114.6-60h.2Z"/>
            <path class="cls-4"
                  d="M514.9,308.5l-114.6,60-113.6-59.4,113.1-58.6,115.2,58.1ZM503.2,110.2l-104.8,51.9-104.6-50.3,106.5-47.3,102.9,45.7Z"/>
            <path class="cls-1" d="M491,205l-87.7,45.5-89-44.9,87.6-43.4,89.1,42.9Z"/>
            <path class="cls-3"
                  d="M400.3,736.9v-268.5l114-59.6v.2l90.1-47.1v-.2l83.6-43.8-2.5,273.1-285.2,152.2-2.7-1.5,2.7-4.8Z"/>
            <path class="cls-6" d="M400.3,468.4v268.5l-2.7,4.8-282.6-158.6-2.5-265.2,85.4,44.7,89.9,47,112.5,58.8Z"/>
            <path class="cls-4" d="M400.3,368.5v99.9l-112.5-58.8-1.1-100.5,113.6,59.4Z"/>
            <path class="cls-1"
                  d="M403.3,250.4l-113.1,58.6-89.9-47h0s113.9-56.5,113.9-56.5l89,44.9ZM401.9,162.1l-87.6,43.4-106.8-53.9,2-.9,87.8-39,104.6,50.3Z"/>
            <path class="cls-4" d="M204,151.7l106.8,53.9-113.9,56.5h0s-110.8-58-110.8-58l118-52.4Z"/>
            <path class="cls-6" d="M290.3,309.1l1.1,100.5-89.9-47-1.1-100.5,89.9,47Z"/>
            <path class="cls-4" d="M112.6,317.9l-26.6-13.9v-99.9l110.8,58,1.1,100.5-85.4-44.7Z"/>
            <path class="cls-2"
                  d="M400.3,386c-2.8,0-5.6-.7-8.1-2L77.8,219.6c-8.6-4.5-11.9-15-7.4-23.6,1.8-3.5,4.8-6.3,8.4-7.9l118-52.4c8.9-3.8,19.2.3,22.9,9.2,3.7,8.7-.2,18.8-8.8,22.7l-84.9,37.7,274.2,143.4,274.2-143.4-177.7-78.9c-8.8-4-12.7-14.4-8.7-23.1,3.9-8.7,14.1-12.6,22.9-8.8l210.8,93.6c8.8,3.9,12.8,14.2,8.9,23.1-1.6,3.6-4.4,6.6-7.9,8.4l-314.3,164.5c-2.5,1.3-5.3,2-8.1,2h0Z"/>
            <path class="cls-2"
                  d="M206,168.3c-6.9,0-13.2-4.1-16-10.4-3.9-8.8,0-19.2,8.9-23.1l194.3-86.2c4.5-2,9.7-2,14.2,0l102.9,45.7c8.9,3.8,12.9,14.1,9.1,23s-14.1,12.9-23,9.1c0,0-.2,0-.2-.1l-95.8-42.5-187.2,83.1c-2.2,1-4.6,1.5-7.1,1.5h0ZM197.9,380c-2.8,0-5.6-.7-8.1-2l-112-58.6c-8.6-4.5-11.9-15-7.4-23.6,4.5-8.6,15-11.9,23.6-7.4l112,58.6c8.6,4.5,11.9,15,7.4,23.6,0,0,0,0,0,0-3,5.8-9,9.4-15.5,9.4h0ZM400.3,485.9c-2.8,0-5.6-.7-8.1-2l-112.5-58.8c-8.6-4.5-11.9-15-7.4-23.6,0,0,0,0,0,0,4.5-8.6,15-11.9,23.6-7.4h0s104.4,54.6,104.4,54.6l306.2-160.2c8.5-4.6,19.1-1.4,23.7,7.1,4.6,8.5,1.4,19.1-7.1,23.7-.1,0-.2.1-.3.2l-314.3,164.5c-2.5,1.3-5.3,2-8.1,2h0Z"/>
            <path class="cls-2"
                  d="M86,321.5c-9.7,0-17.5-7.8-17.5-17.5h0v-99.9c0-9.7,7.8-17.5,17.5-17.5,9.7,0,17.5,7.8,17.5,17.5h0v99.9c0,9.7-7.8,17.5-17.5,17.5h0ZM714.6,321.5c-9.7,0-17.5-7.8-17.5-17.5v-99.9c0-9.7,7.8-17.5,17.5-17.5s17.5,7.8,17.5,17.5v99.9c0,9.7-7.8,17.5-17.5,17.5h0ZM400.3,760.7c-3,0-5.9-.8-8.6-2.2l-285.2-160.1c-8.4-4.8-11.3-15.4-6.6-23.8,4.7-8.3,15.3-11.3,23.7-6.7l276.9,155.4,276.8-147.7c8.5-4.5,19.1-1.3,23.7,7.2,4.5,8.5,1.3,19.1-7.2,23.7l-285.2,152.2c-2.5,1.4-5.4,2.1-8.2,2.1Z"/>
            <path class="cls-2"
                  d="M400.3,754.4c-9.7,0-17.5-7.8-17.5-17.5v-268.5c0-9.7,7.8-17.5,17.5-17.5s17.5,7.8,17.5,17.5h0v268.5c0,9.7-7.8,17.5-17.5,17.5h0ZM115,600.6c-9.6,0-17.4-7.7-17.5-17.3l-2.5-265.2,17.5-.2h17.5s2.5,265.1,2.5,265.1c0,9.7-7.7,17.6-17.3,17.6h-.2ZM685.6,608.5h-.2c-9.7,0-17.4-8-17.3-17.6l2.5-273.1c0-9.6,7.9-17.3,17.5-17.3h0c9.6,0,17.4,7.8,17.4,17.5h0s-2.5,273.3-2.5,273.3c0,9.6-7.9,17.3-17.5,17.3h0Z"/>
            <path class="cls-2"
                  d="M400.3,485.9c-9.7,0-17.5-7.8-17.5-17.5v-99.9c0-9.7,7.8-17.5,17.5-17.5,9.7,0,17.5,7.8,17.5,17.5h0v99.9c0,9.7-7.8,17.5-17.5,17.5ZM287.8,427.1c-2.8,0-5.6-.7-8.1-2l-89.9-47c-5.7-3-9.3-8.9-9.4-15.3l-1.1-100.5c0-6.7,3.7-12.9,9.7-15.9L495.4,94.5c4.7-2.3,10.1-2.4,14.9-.3l90,40c8.8,3.9,12.8,14.2,8.9,23.1-1.6,3.6-4.4,6.6-7.9,8.4l-296.9,154,1,88.4c.8,9.6-6.3,18.1-15.9,18.9-.5,0-1,0-1.5,0h0s0,0,0,0ZM215.3,351.9l54.7,28.6-.8-71.3c0-6.6,3.6-12.7,9.4-15.7l274.2-142.2-49.3-21.9-289.2,143.3.9,79.1h0Z"/>
            <path class="cls-2"
                  d="M514.3,426.5c-9.7,0-17.5-7.8-17.5-17.5h0v-.2l.8-89.4L196.1,167.3c-8.6-4.4-12.1-14.9-7.7-23.5,1.8-3.5,4.7-6.4,8.3-8l2-.9,87.4-39.3c4.7-2.1,10-2,14.7.2l.5.2,311.1,149.7c6.1,2.9,10.2,9.2,10.2,16l-.7,100c0,6.5-3.7,12.6-9.4,15.6l-90.1,47.1c-2.5,1.3-5.3,2-8.1,2h0ZM244.6,152.6l278.2,140.3c.2.1.4.2.6.3h.2c5.6,3.2,9.1,9.2,9,15.6l-.6,71.2,54.9-28.7.5-78.7-294.5-141.7-48.4,21.8h0Z"/>
        </g>
    </g>
</svg>